# xmcd CD database file generated by OrangeCD 5.1
#
# Track frame offsets:
#	182
#	17172
#	49355
#	74925
#	96362
#	116995
#	131245
#	146745
#	161082
#	172157
#	194055
#	207252
#	226632
#
# Disc length: 3360 seconds
#
# Revision: 4
# Processed by: cddbd v1.5PL3 Copyright (c) Steve Scherf et al.
# Submitted via: OrangeCD 5.1
#
DISCID=d70d1e0d
DTITLE=Clarence Gatemouth Brown - Long Way Home
DYEAR=1996
DGENRE=Blues
TTITLE0=Blues Power
TTITLE1=Somebody Else
TTITLE2=Dockside Boogie
TTITLE3=I'll Be There (If You Ever Want Me)
TTITLE4=Here I Go Again
TTITLE5=Deep, Deep Water
TTITLE6=The Blues Walk
TTITLE7=Mean And Evil
TTITLE8=Underhand Boogie
TTITLE9=Don't Think Twice
TTITLE10=Tobacco Road
TTITLE11=Don't Cry Sister
TTITLE12=Long Way Home
EXTD=
EXTT0=
EXTT1=
EXTT2=
EXTT3=
EXTT4=
EXTT5=
EXTT6=
EXTT7=
EXTT8=
EXTT9=
EXTT10=
EXTT11=
EXTT12=
PLAYORDER=
